<svg id="visual" viewBox="0 0 960 540" width="960" height="540" xmlns="http://www.w3.org/2000/svg" xmlns:xlink="http://www.w3.org/1999/xlink" version="1.1"><path d="M0 363L26.7 372.3C53.3 381.7 106.7 400.3 160 395.5C213.3 390.7 266.7 362.3 320 350.8C373.3 339.3 426.7 344.7 480 358.2C533.3 371.7 586.7 393.3 640 400C693.3 406.7 746.7 398.3 800 391.8C853.3 385.3 906.7 380.7 933.3 378.3L960 376L960 541L933.3 541C906.7 541 853.3 541 800 541C746.7 541 693.3 541 640 541C586.7 541 533.3 541 480 541C426.7 541 373.3 541 320 541C266.7 541 213.3 541 160 541C106.7 541 53.3 541 26.7 541L0 541Z" fill="#2f2f9a" stroke-linecap="round" stroke-linejoin="miter"></path></svg>